<svg width="94" height="154" viewBox="0 0 94 154" fill="none" xmlns="http://www.w3.org/2000/svg">
<path d="M88.6933 4.02519C89.4431 16.2082 90.1229 28.1767 90.0657 40.4626C89.9791 59.0452 84.9475 77.9844 77.6971 92.3739C70.3098 107.035 60.9648 119.072 50.1085 126.566C43.355 131.228 36.237 135.273 28.9607 137.196C21.1495 139.26 13.1304 139.383 5.24171 140.095" stroke="#DD8A7A" stroke-width="7" stroke-linecap="round"/>
<path d="M11.6084 130.366C10.3974 132.081 8.77309 133.428 7.75514 135.43C6.96902 136.977 6.15388 138.893 5.02235 139.916C4.52599 140.364 3.92508 140.852 4.69629 141.612C7.11518 143.995 8.91581 147.436 11.069 150.272" stroke="#DD8A7A" stroke-width="7" stroke-linecap="round"/>
</svg>
