<?xml version="1.0" encoding="UTF-8" standalone="no"?>
<!DOCTYPE svg PUBLIC "-//W3C//DTD SVG 1.1//EN" "http://www.w3.org/Graphics/SVG/1.1/DTD/svg11.dtd">
<svg width="100%" height="100%" viewBox="0 0 476 174" version="1.1" xmlns="http://www.w3.org/2000/svg" xmlns:xlink="http://www.w3.org/1999/xlink" xml:space="preserve" xmlns:serif="http://www.serif.com/" style="fill-rule:evenodd;clip-rule:evenodd;stroke-linejoin:round;stroke-miterlimit:2;">
    <g transform="matrix(1,0,0,1,-153.969,-175.994)">
        <g>
            <g transform="matrix(1.24911,0,0,1.24911,-195.461,-62.0385)">
                <path d="M365.258,246.241C357.546,246.241 350.26,230.549 365.08,230.549C371.518,230.549 381.436,231.706 386.834,234.02C392.232,236.333 396.273,239.368 398.955,243.123C401.638,246.878 403.515,251.338 404.588,256.501C405.259,259.854 405.594,265.722 405.594,274.104L405.594,318.007L387.488,329.552L387.488,274.809C387.488,267.432 386.784,261.916 385.376,258.262C383.967,254.607 381.469,251.69 377.882,249.51C374.294,247.331 370.086,246.241 365.258,246.241Z" style="fill:white;fill-rule:nonzero;"/>
            </g>
            <g transform="matrix(-1.24911,0,0,1.24911,713.584,-62.0385)">
                <path d="M365.258,246.241C357.546,246.241 350.26,230.549 365.08,230.549C371.518,230.549 381.436,231.706 386.834,234.02C392.232,236.333 396.273,239.368 398.955,243.123C401.638,246.878 403.515,251.338 404.588,256.501C405.259,259.854 405.594,265.722 405.594,274.104L405.594,318.007L387.488,329.552L387.488,274.809C387.488,267.432 386.784,261.916 385.376,258.262C383.967,254.607 381.469,251.69 377.882,249.51C374.294,247.331 370.086,246.241 365.258,246.241Z" style="fill:white;fill-rule:nonzero;"/>
            </g>
            <g transform="matrix(1.24911,0,0,1.24911,-194.915,-62.0385)">
                <path d="M363.063,242.829L363.484,241.588L364.761,239.072L382.729,247.339L385.923,258.079C380.994,250.226 374.342,250.004 374.342,250.004C365.866,248.617 363.372,255.497 363.115,256.285L363.116,256.601C363.116,256.601 361.339,248.595 352.35,250.066C352.35,250.066 345.965,250.299 341.036,258.153L343.479,247.581L361.447,239.315L362.724,241.83L363.063,242.829Z" style="fill:white;"/>
            </g>
            <g transform="matrix(1.24911,0,0,1.24911,-136.334,-119.255)">
                <path d="M268.827,362.506C266.409,363.165 263.863,363.517 261.236,363.517C245.325,363.517 232.407,350.599 232.407,334.688C232.407,318.777 245.325,305.859 261.236,305.859C263.863,305.859 266.409,306.211 268.827,306.871L268.827,326.968C266.872,325.046 264.192,323.859 261.236,323.859C255.26,323.859 250.407,328.712 250.407,334.688C250.407,340.665 255.26,345.517 261.236,345.517C264.192,345.517 266.872,344.331 268.827,342.408L268.827,362.506Z" style="fill:white;"/>
            </g>
            <g transform="matrix(-1.24911,0,0,1.24911,654.123,-119.255)">
                <path d="M268.827,362.506C266.409,363.165 263.863,363.517 261.236,363.517C245.325,363.517 232.407,350.599 232.407,334.688C232.407,318.777 245.325,305.859 261.236,305.859C263.863,305.859 266.409,306.211 268.827,306.871L268.827,326.968C266.872,325.046 264.192,323.859 261.236,323.859C255.26,323.859 250.407,328.712 250.407,334.688C250.407,340.665 255.26,345.517 261.236,345.517C264.192,345.517 266.872,344.331 268.827,342.408L268.827,362.506Z" style="fill:white;"/>
            </g>
            <g transform="matrix(1.24911,0,0,1.24911,-196.71,-64.5116)">
                <path d="M351.246,229.243C351.246,229.243 364.083,225.884 380.202,229.347C380.202,229.347 382.541,213.783 392.742,211.955C392.742,211.955 379.393,210.694 375.657,218.765C375.657,218.765 366.656,194.84 352.594,192.541C352.594,192.541 362.707,201.258 359.859,215.785C359.859,215.785 357.247,205.922 348.695,205.539C348.695,205.539 354.026,209.65 352.877,214.031C352.877,214.031 343.194,208.7 333.76,216.347C333.76,216.347 351.246,214.641 351.246,229.243Z" style="fill:white;"/>
            </g>
            <g transform="matrix(1.24911,0,0,1.24911,-195.461,-53.2947)">
                <ellipse cx="354.467" cy="288.073" rx="6.427" ry="9.609" style="fill:white;"/>
            </g>
            <g transform="matrix(1.24911,0,0,1.24911,-173.922,-53.2947)">
                <ellipse cx="354.467" cy="288.073" rx="6.427" ry="9.609" style="fill:white;"/>
            </g>
        </g>
        <g transform="matrix(0.438621,0,0,0.438621,355.601,51.8342)">
            <path d="M134.661,497.031C126.956,497.031 120.207,495.577 114.414,492.669C108.621,489.761 104.144,485.632 100.984,480.283C97.823,474.934 96.243,468.656 96.243,461.449L96.243,438.648C96.243,431.331 97.823,425.026 100.984,419.732C104.144,414.438 108.621,410.337 114.414,407.429C120.207,404.521 126.956,403.067 134.661,403.067C146.001,403.067 155.083,405.998 161.907,411.86C168.731,417.723 172.34,425.714 172.733,435.836L152.112,435.836C151.782,431.168 150.088,427.542 147.031,424.955C143.973,422.369 139.85,421.076 134.661,421.076C129.076,421.076 124.714,422.58 121.575,425.587C118.435,428.593 116.865,432.925 116.865,438.581L116.865,461.449C116.865,467.04 118.435,471.367 121.575,474.428C124.714,477.49 129.076,479.021 134.661,479.021C139.85,479.021 143.973,477.733 147.031,475.156C150.088,472.579 151.782,468.948 152.112,464.262L172.733,464.262C172.34,474.383 168.731,482.375 161.907,488.237C155.083,494.1 146.001,497.031 134.661,497.031Z" style="fill:white;fill-rule:nonzero;"/>
            <path d="M224.764,496.894C217.061,496.894 210.379,495.44 204.718,492.532C199.057,489.624 194.674,485.496 191.569,480.147C188.463,474.798 186.91,468.519 186.91,461.31L186.91,438.787C186.91,431.534 188.463,425.244 191.569,419.917C194.674,414.591 199.057,410.473 204.718,407.565C210.379,404.657 217.061,403.203 224.764,403.203C232.533,403.203 239.231,404.657 244.859,407.565C250.487,410.473 254.854,414.591 257.959,419.917C261.065,425.244 262.618,431.511 262.618,438.718L262.618,461.31C262.618,468.519 261.065,474.798 257.959,480.147C254.854,485.496 250.487,489.624 244.859,492.532C239.231,495.44 232.533,496.894 224.764,496.894ZM224.764,478.885C230.283,478.885 234.535,477.376 237.519,474.36C240.504,471.344 241.996,466.994 241.996,461.31L241.996,438.787C241.996,433.038 240.504,428.672 237.519,425.688C234.535,422.705 230.283,421.213 224.764,421.213C219.355,421.213 215.131,422.705 212.091,425.688C209.052,428.672 207.532,433.038 207.532,438.787L207.532,461.31C207.532,466.994 209.052,471.344 212.091,474.36C215.131,477.376 219.355,478.885 224.764,478.885Z" style="fill:white;fill-rule:nonzero;"/>
            <path d="M307.745,497.031C298.67,497.031 291.373,493.912 285.855,487.674C280.337,481.437 277.578,472.992 277.578,462.34L277.578,437.824C277.578,427.191 280.325,418.74 285.82,412.471C291.315,406.201 298.624,403.067 307.745,403.067C315.219,403.067 321.144,405.18 325.521,409.407C329.898,413.634 332.086,419.443 332.086,426.836L327.481,422.024L332.223,422.024L331.605,400.455L331.605,375.042L352.226,375.042L352.226,495.382L332.086,495.382L332.086,478.073L327.481,478.073L332.086,473.262C332.086,480.699 329.898,486.52 325.521,490.724C321.144,494.929 315.219,497.031 307.745,497.031ZM315.006,479.158C320.196,479.158 324.259,477.604 327.198,474.497C330.136,471.389 331.605,467.04 331.605,461.449L331.605,438.648C331.605,433.057 330.136,428.708 327.198,425.601C324.259,422.493 320.196,420.94 315.006,420.94C309.705,420.94 305.579,422.471 302.627,425.532C299.675,428.594 298.199,432.966 298.199,438.648L298.199,461.449C298.199,467.131 299.675,471.503 302.627,474.565C305.579,477.627 309.705,479.158 315.006,479.158Z" style="fill:white;fill-rule:nonzero;"/>
            <path d="M406.194,497.031C398.537,497.031 391.851,495.554 386.135,492.601C380.42,489.647 376.009,485.496 372.903,480.147C369.798,474.798 368.245,468.565 368.245,461.449L368.245,438.648C368.245,431.488 369.798,425.244 372.903,419.917C376.009,414.591 380.42,410.45 386.135,407.497C391.851,404.543 398.537,403.067 406.194,403.067C413.853,403.067 420.508,404.543 426.159,407.497C431.81,410.45 436.189,414.591 439.294,419.917C442.4,425.244 443.952,431.488 443.952,438.648L443.952,454.93L388.056,454.93L388.056,461.449C388.056,467.756 389.612,472.549 392.724,475.826C395.837,479.103 400.391,480.742 406.387,480.742C411.01,480.742 414.742,479.934 417.584,478.319C420.426,476.704 422.232,474.378 423.001,471.34L443.334,471.34C441.767,479.116 437.607,485.341 430.856,490.017C424.105,494.693 415.884,497.031 406.194,497.031ZM424.142,443.398L424.142,438.458C424.142,432.214 422.646,427.426 419.653,424.094C416.66,420.762 412.173,419.096 406.194,419.096C400.263,419.096 395.757,420.794 392.676,424.19C389.596,427.587 388.056,432.406 388.056,438.648L388.056,442.079L425.585,441.886L424.142,443.398Z" style="fill:white;fill-rule:nonzero;"/>
            <path d="M479.292,389.054L496.766,365.975L518.856,365.975L500.063,389.054L479.292,389.054Z" style="fill:white;fill-rule:nonzero;"/>
            <path d="M542.396,495.382L542.396,404.715L562.536,404.715L562.536,422.024L568.079,422.024L562.536,426.836C562.536,419.371 564.711,413.543 569.062,409.353C573.412,405.162 579.347,403.067 586.864,403.067C595.794,403.067 602.935,406.03 608.287,411.956C613.64,417.882 616.316,425.842 616.316,435.836L616.316,495.382L595.694,495.382L595.694,437.966C595.694,432.51 594.253,428.309 591.369,425.361C588.486,422.414 584.496,420.94 579.397,420.94C574.271,420.94 570.26,422.471 567.363,425.532C564.466,428.594 563.018,432.966 563.018,438.648L563.018,495.382L542.396,495.382Z" style="fill:white;fill-rule:nonzero;"/>
            <path d="M134.661,647.345C126.956,647.345 120.207,645.891 114.414,642.983C108.621,640.075 104.144,635.947 100.984,630.598C97.823,625.249 96.243,618.971 96.243,611.764L96.243,588.963C96.243,581.646 97.823,575.34 100.984,570.046C104.144,564.752 108.621,560.651 114.414,557.743C120.207,554.835 126.956,553.381 134.661,553.381C146.001,553.381 155.083,556.312 161.907,562.175C168.731,568.037 172.34,576.029 172.733,586.15L152.112,586.15C151.782,581.483 150.088,577.856 147.031,575.27C143.973,572.684 139.85,571.391 134.661,571.391C129.076,571.391 124.714,572.894 121.575,575.901C118.435,578.908 116.865,583.239 116.865,588.896L116.865,611.764C116.865,617.355 118.435,621.681 121.575,624.743C124.714,627.805 129.076,629.336 134.661,629.336C139.85,629.336 143.973,628.047 147.031,625.471C150.088,622.894 151.782,619.263 152.112,614.576L172.733,614.576C172.34,624.697 168.731,632.689 161.907,638.552C155.083,644.414 146.001,647.345 134.661,647.345Z" style="fill:white;fill-rule:nonzero;"/>
            <path d="M224.764,647.209C217.061,647.209 210.379,645.755 204.718,642.847C199.057,639.939 194.674,635.81 191.569,630.461C188.463,625.112 186.91,618.833 186.91,611.625L186.91,589.102C186.91,581.849 188.463,575.558 191.569,570.232C194.674,564.905 199.057,560.788 204.718,557.88C210.379,554.972 217.061,553.518 224.764,553.518C232.533,553.518 239.231,554.972 244.859,557.88C250.487,560.788 254.854,564.905 257.959,570.232C261.065,575.558 262.618,581.825 262.618,589.032L262.618,611.625C262.618,618.833 261.065,625.112 257.959,630.461C254.854,635.81 250.487,639.939 244.859,642.847C239.231,645.755 232.533,647.209 224.764,647.209ZM224.764,629.199C230.283,629.199 234.535,627.691 237.519,624.675C240.504,621.658 241.996,617.308 241.996,611.625L241.996,589.102C241.996,583.353 240.504,578.986 237.519,576.003C234.535,573.019 230.283,571.527 224.764,571.527C219.355,571.527 215.131,573.019 212.091,576.003C209.052,578.986 207.532,583.353 207.532,589.102L207.532,611.625C207.532,617.308 209.052,621.658 212.091,624.675C215.131,627.691 219.355,629.199 224.764,629.199Z" style="fill:white;fill-rule:nonzero;"/>
            <path d="M299.833,645.697L299.833,583.69L274.806,583.69L274.806,565.06L299.833,565.06L299.833,551.328C299.833,543.414 302.455,537.106 307.7,532.406C312.945,527.707 319.942,525.357 328.692,525.357L355.232,525.357L355.232,543.503L329.173,543.503C326.474,543.503 324.346,544.235 322.789,545.7C321.233,547.165 320.454,549.201 320.454,551.81L320.454,565.06L355.232,565.06L355.232,583.69L320.454,583.69L320.454,645.697L299.833,645.697Z" style="fill:white;fill-rule:nonzero;"/>
            <path d="M390.5,645.697L390.5,583.69L365.474,583.69L365.474,565.06L390.5,565.06L390.5,551.328C390.5,543.414 393.123,537.106 398.368,532.406C403.613,527.707 410.61,525.357 419.359,525.357L445.9,525.357L445.9,543.503L419.841,543.503C417.141,543.503 415.013,544.235 413.457,545.7C411.9,547.165 411.122,549.201 411.122,551.81L411.122,565.06L445.9,565.06L445.9,583.69L411.122,583.69L411.122,645.697L390.5,645.697Z" style="fill:white;fill-rule:nonzero;"/>
            <path d="M496.862,647.345C489.205,647.345 482.518,645.869 476.803,642.915C471.087,639.962 466.676,635.81 463.571,630.461C460.465,625.112 458.913,618.88 458.913,611.764L458.913,588.963C458.913,581.802 460.465,575.558 463.571,570.232C466.676,564.905 471.087,560.765 476.803,557.811C482.518,554.858 489.205,553.381 496.862,553.381C504.52,553.381 511.175,554.858 516.826,557.811C522.478,560.765 526.856,564.905 529.962,570.232C533.067,575.558 534.62,581.802 534.62,588.963L534.62,605.244L478.723,605.244L478.723,611.764C478.723,618.071 480.279,622.863 483.392,626.14C486.504,629.418 491.058,631.056 497.055,631.056C501.677,631.056 505.41,630.249 508.252,628.634C511.094,627.019 512.899,624.692 513.668,621.655L534.002,621.655C532.434,629.43 528.274,635.656 521.523,640.332C514.772,645.007 506.552,647.345 496.862,647.345ZM514.81,593.713L514.81,588.772C514.81,582.529 513.313,577.741 510.32,574.408C507.327,571.076 502.841,569.41 496.862,569.41C490.93,569.41 486.424,571.108 483.344,574.505C480.263,577.902 478.723,582.721 478.723,588.963L478.723,592.394L516.252,592.201L514.81,593.713Z" style="fill:white;fill-rule:nonzero;"/>
            <path d="M587.529,647.345C579.872,647.345 573.186,645.869 567.47,642.915C561.754,639.962 557.344,635.81 554.238,630.461C551.133,625.112 549.58,618.88 549.58,611.764L549.58,588.963C549.58,581.802 551.133,575.558 554.238,570.232C557.344,564.905 561.754,560.765 567.47,557.811C573.186,554.858 579.872,553.381 587.529,553.381C595.188,553.381 601.843,554.858 607.494,557.811C613.145,560.765 617.523,564.905 620.629,570.232C623.735,575.558 625.287,581.802 625.287,588.963L625.287,605.244L569.39,605.244L569.39,611.764C569.39,618.071 570.947,622.863 574.059,626.14C577.171,629.418 581.726,631.056 587.722,631.056C592.345,631.056 596.077,630.249 598.919,628.634C601.761,627.019 603.567,624.692 604.336,621.655L624.669,621.655C623.101,629.43 618.942,635.656 612.191,640.332C605.44,645.007 597.219,647.345 587.529,647.345ZM605.477,593.713L605.477,588.772C605.477,582.529 603.98,577.741 600.987,574.408C597.994,571.076 593.508,569.41 587.529,569.41C581.598,569.41 577.092,571.108 574.011,574.505C570.931,577.902 569.39,582.721 569.39,588.963L569.39,592.394L606.919,592.201L605.477,593.713Z" style="fill:white;fill-rule:nonzero;"/>
        </g>
    </g>
</svg>
