<svg width="3260" height="1018" viewBox="0 0 3260 1018" fill="none" xmlns="http://www.w3.org/2000/svg">
<path d="M759.784 632.458L759.789 632.448L759.794 632.438C772.881 606.777 789.226 582.899 808.805 560.81L808.834 560.777L808.859 560.749L808.889 560.717C808.889 560.716 808.889 560.716 808.889 560.716C828.636 538.995 849.61 518.021 871.809 497.796L871.837 497.77L871.862 497.748L871.89 497.722L869.894 495.483L871.89 497.722C894.073 477.951 914.546 457.476 933.316 436.299L933.346 436.265L933.371 436.237L933.401 436.205C933.401 436.205 933.401 436.205 933.401 436.205C952.371 415.338 967.97 393.109 980.242 369.52L980.248 369.508L980.254 369.497C992.147 346.149 998.183 319.913 998.183 290.588C998.183 265.221 994.427 241.66 986.997 219.836L986.967 219.746L986.937 219.654C980.034 198.024 969.271 179.283 954.66 163.302L952.446 165.327L954.66 163.302L954.622 163.262L954.591 163.227L954.554 163.185C954.554 163.185 954.554 163.185 954.554 163.185C940.562 147.387 922.361 134.793 899.667 125.53L899.643 125.52L899.624 125.512L899.6 125.502C899.6 125.502 899.6 125.502 899.6 125.502C877.644 116.354 851.419 111.623 820.683 111.623C792.778 111.623 767.434 117.19 744.49 128.194L744.479 128.2L744.467 128.205C721.881 139.276 701.994 154.975 684.788 175.434L684.784 175.439C668.089 195.384 654.486 219.674 644.087 248.48L644.08 248.501L644.072 248.523C634.174 277.303 628.229 309.063 626.322 343.869L625.804 353.322H504.122L504.538 342.923C506.529 293.145 515.498 247.379 531.557 205.717L531.562 205.706C547.593 163.631 569.477 127.584 597.304 97.734L597.334 97.7013L597.365 97.6686L597.365 97.6685C625.63 67.8898 658.711 44.6607 696.538 28.0168C734.535 11.2984 775.96 3 820.683 3C874.821 3 921.393 11.1821 960.071 27.957L960.091 27.9659L960.112 27.9746C998.823 44.0761 1030.61 65.8569 1055.17 93.4676L1055.17 93.4774L1055.18 93.4872C1079.56 120.412 1097.12 151.193 1107.8 185.747L1107.81 185.765L1107.81 185.783C1118.86 219.949 1124.38 254.896 1124.38 290.588C1124.38 324.05 1118.29 354.752 1105.94 382.54L1105.93 382.562L1105.93 382.581L1105.92 382.603L1105.92 382.604C1093.88 409.184 1078.83 434.015 1060.79 457.081L1060.78 457.096L1060.77 457.112C1043.43 479.896 1024.37 501.677 1003.59 522.457L1003.58 522.47L1003.56 522.483C983.786 542.748 965.22 563.484 947.865 584.691L947.852 584.707L947.839 584.724C931.209 605.64 917.214 627.712 905.835 650.944L905.822 650.971L905.812 650.991L905.799 651.017C905.799 651.018 905.798 651.018 905.798 651.018C894.853 672.91 889.276 697.717 889.276 725.646V801.564H739.638V719.787C739.638 687.631 746.28 658.446 759.784 632.458Z" stroke="#E5E5E5" stroke-width="6"/>
<path d="M0 1014.5H737.5V925.5H886.5V1014.5H3259.5" stroke="#E5E5E5" stroke-width="6"/>
</svg>
